<svg width="248" height="62" viewBox="0 0 248 62" fill="none" xmlns="http://www.w3.org/2000/svg">
<g clip-path="url(#clip0_121_806)">
<g filter="url(#filter0_d_121_806)">
<rect width="247.184" height="62" rx="2.44737" fill="#FAFAFA"/>
<rect x="0.407895" y="0.407895" width="246.368" height="61.1842" rx="2.03947" stroke="#D6D6D6" stroke-width="0.815789"/>
</g>
<g clip-path="url(#clip1_121_806)">
<path d="M192.921 40.9127C193.046 40.642 193.2 40.4312 193.382 40.2802C193.564 40.1267 193.787 40.0499 194.049 40.0499C194.133 40.0499 194.212 40.059 194.288 40.0772C194.366 40.0954 194.435 40.1241 194.494 40.1631L194.444 40.6823C194.428 40.7474 194.389 40.7799 194.327 40.7799C194.29 40.7799 194.237 40.7721 194.167 40.7565C194.096 40.7409 194.017 40.7331 193.928 40.7331C193.803 40.7331 193.692 40.7513 193.593 40.7877C193.496 40.8242 193.409 40.8788 193.331 40.9517C193.256 41.022 193.187 41.1104 193.124 41.2172C193.064 41.3213 193.01 41.441 192.96 41.5763V44.0748H192.261V40.1202H192.66C192.735 40.1202 192.787 40.1345 192.816 40.1631C192.844 40.1917 192.864 40.2412 192.874 40.3114L192.921 40.9127ZM197.592 41.6661C197.592 41.5047 197.569 41.3577 197.522 41.225C197.478 41.0896 197.411 40.9738 197.323 40.8775C197.237 40.7786 197.132 40.7031 197.007 40.6511C196.882 40.5964 196.74 40.5691 196.581 40.5691C196.248 40.5691 195.984 40.6667 195.789 40.8619C195.596 41.0545 195.476 41.3226 195.429 41.6661H197.592ZM198.154 43.5205C198.068 43.6246 197.966 43.7157 197.846 43.7937C197.726 43.8692 197.597 43.9317 197.459 43.9811C197.324 44.0306 197.184 44.067 197.038 44.0904C196.892 44.1165 196.748 44.1295 196.605 44.1295C196.331 44.1295 196.079 44.0839 195.847 43.9928C195.618 43.8992 195.419 43.7638 195.25 43.5868C195.083 43.4073 194.953 43.186 194.859 42.9232C194.766 42.6603 194.719 42.3584 194.719 42.0175C194.719 41.7416 194.761 41.4839 194.844 41.2445C194.93 41.005 195.052 40.7981 195.211 40.6238C195.37 40.4468 195.563 40.3088 195.792 40.2099C196.022 40.1084 196.279 40.0577 196.565 40.0577C196.802 40.0577 197.021 40.098 197.221 40.1787C197.424 40.2568 197.599 40.3713 197.744 40.5223C197.893 40.6706 198.009 40.8554 198.092 41.0766C198.175 41.2952 198.217 41.5451 198.217 41.8262C198.217 41.9355 198.205 42.0084 198.182 42.0448C198.158 42.0812 198.114 42.0994 198.049 42.0994H195.406C195.414 42.3493 195.448 42.5666 195.508 42.7514C195.57 42.9362 195.656 43.091 195.765 43.216C195.874 43.3383 196.005 43.4307 196.156 43.4931C196.307 43.553 196.476 43.5829 196.663 43.5829C196.837 43.5829 196.987 43.5634 197.112 43.5244C197.24 43.4827 197.349 43.4385 197.44 43.3916C197.531 43.3448 197.607 43.3019 197.666 43.2628C197.729 43.2212 197.782 43.2004 197.826 43.2004C197.884 43.2004 197.928 43.2225 197.959 43.2667L198.154 43.5205ZM203.131 42.9193C203.173 42.9193 203.209 42.9362 203.241 42.97L203.541 43.294C203.312 43.5595 203.034 43.7664 202.706 43.9148C202.38 44.0631 201.986 44.1373 201.523 44.1373C201.122 44.1373 200.758 44.0683 200.43 43.9304C200.102 43.7898 199.822 43.5946 199.59 43.3448C199.359 43.0923 199.179 42.7904 199.052 42.4391C198.924 42.0877 198.86 41.7012 198.86 41.2796C198.86 40.858 198.927 40.4715 199.059 40.1202C199.192 39.7688 199.378 39.4669 199.618 39.2144C199.86 38.962 200.149 38.7668 200.484 38.6289C200.82 38.4883 201.191 38.418 201.597 38.418C201.995 38.418 202.347 38.4818 202.651 38.6093C202.956 38.7369 203.224 38.9099 203.455 39.1286L203.205 39.476C203.19 39.502 203.169 39.5242 203.143 39.5424C203.119 39.558 203.087 39.5658 203.045 39.5658C202.998 39.5658 202.941 39.5411 202.874 39.4916C202.806 39.4396 202.717 39.3823 202.608 39.3199C202.499 39.2574 202.362 39.2014 202.198 39.152C202.034 39.0999 201.832 39.0739 201.593 39.0739C201.304 39.0739 201.04 39.1247 200.801 39.2262C200.561 39.3251 200.354 39.4695 200.18 39.6595C200.008 39.8495 199.874 40.0811 199.778 40.3544C199.681 40.6277 199.633 40.9361 199.633 41.2796C199.633 41.6284 199.683 41.9394 199.782 42.2127C199.883 42.4859 200.02 42.7176 200.192 42.9076C200.366 43.0949 200.57 43.2381 200.804 43.337C201.041 43.4359 201.296 43.4853 201.57 43.4853C201.736 43.4853 201.886 43.4762 202.019 43.458C202.154 43.4372 202.278 43.406 202.389 43.3643C202.504 43.3227 202.609 43.2706 202.706 43.2082C202.805 43.1431 202.902 43.0663 202.998 42.9778C203.043 42.9388 203.087 42.9193 203.131 42.9193ZM207.39 41.9979L206.512 39.722C206.486 39.6543 206.458 39.5762 206.43 39.4877C206.401 39.3966 206.374 39.3003 206.348 39.1988C206.293 39.4096 206.237 39.5853 206.18 39.7259L205.302 41.9979H207.39ZM208.967 44.0748H208.382C208.314 44.0748 208.259 44.0579 208.218 44.0241C208.176 43.9902 208.145 43.9473 208.124 43.8952L207.601 42.5445H205.091L204.568 43.8952C204.552 43.9421 204.522 43.9837 204.478 44.0202C204.434 44.0566 204.379 44.0748 204.314 44.0748H203.728L205.965 38.4805H206.73L208.967 44.0748ZM211.355 41.3811C211.571 41.3811 211.761 41.3525 211.925 41.2952C212.091 41.238 212.23 41.1586 212.342 41.0571C212.457 40.953 212.543 40.8294 212.6 40.6862C212.657 40.5431 212.686 40.3856 212.686 40.2138C212.686 39.8573 212.575 39.5788 212.354 39.3784C212.135 39.178 211.802 39.0778 211.355 39.0778H210.457V41.3811H211.355ZM211.355 38.4805C211.709 38.4805 212.016 38.5221 212.276 38.6054C212.539 38.6861 212.756 38.8019 212.928 38.9529C213.1 39.1038 213.227 39.286 213.31 39.4994C213.396 39.7128 213.439 39.951 213.439 40.2138C213.439 40.4741 213.394 40.7122 213.303 40.9283C213.212 41.1443 213.078 41.3304 212.901 41.4865C212.726 41.6427 212.509 41.765 212.249 41.8535C211.991 41.9394 211.693 41.9823 211.355 41.9823H210.457V44.0748H209.703V38.4805H211.355ZM218.175 39.1168H216.364V44.0748H215.611V39.1168H213.795V38.4805H218.175V39.1168ZM222.681 42.9193C222.723 42.9193 222.759 42.9362 222.791 42.97L223.091 43.294C222.862 43.5595 222.584 43.7664 222.256 43.9148C221.93 44.0631 221.536 44.1373 221.073 44.1373C220.672 44.1373 220.308 44.0683 219.98 43.9304C219.652 43.7898 219.372 43.5946 219.14 43.3448C218.909 43.0923 218.729 42.7904 218.602 42.4391C218.474 42.0877 218.41 41.7012 218.41 41.2796C218.41 40.858 218.477 40.4715 218.61 40.1202C218.742 39.7688 218.928 39.4669 219.168 39.2144C219.41 38.962 219.699 38.7668 220.034 38.6289C220.37 38.4883 220.741 38.418 221.147 38.418C221.545 38.418 221.897 38.4818 222.201 38.6093C222.506 38.7369 222.774 38.9099 223.005 39.1286L222.755 39.476C222.74 39.502 222.719 39.5242 222.693 39.5424C222.67 39.558 222.637 39.5658 222.595 39.5658C222.549 39.5658 222.491 39.5411 222.424 39.4916C222.356 39.4396 222.267 39.3823 222.158 39.3199C222.049 39.2574 221.912 39.2014 221.748 39.152C221.584 39.0999 221.383 39.0739 221.143 39.0739C220.854 39.0739 220.59 39.1247 220.351 39.2262C220.111 39.3251 219.904 39.4695 219.73 39.6595C219.558 39.8495 219.424 40.0811 219.328 40.3544C219.232 40.6277 219.183 40.9361 219.183 41.2796C219.183 41.6284 219.233 41.9394 219.332 42.2127C219.433 42.4859 219.57 42.7176 219.742 42.9076C219.916 43.0949 220.12 43.2381 220.355 43.337C220.591 43.4359 220.846 43.4853 221.12 43.4853C221.286 43.4853 221.436 43.4762 221.569 43.458C221.704 43.4372 221.828 43.406 221.94 43.3643C222.054 43.3227 222.159 43.2706 222.256 43.2082C222.355 43.1431 222.452 43.0663 222.549 42.9778C222.593 42.9388 222.637 42.9193 222.681 42.9193ZM228.502 38.4805V44.0748H227.744V41.5295H224.727V44.0748H223.969V38.4805H224.727V40.9751H227.744V38.4805H228.502ZM232.903 41.9979L232.025 39.722C231.998 39.6543 231.971 39.5762 231.943 39.4877C231.914 39.3966 231.887 39.3003 231.861 39.1988C231.806 39.4096 231.75 39.5853 231.693 39.7259L230.814 41.9979H232.903ZM234.48 44.0748H233.894C233.827 44.0748 233.772 44.0579 233.731 44.0241C233.689 43.9902 233.658 43.9473 233.637 43.8952L233.114 42.5445H230.603L230.08 43.8952C230.065 43.9421 230.035 43.9837 229.991 44.0202C229.946 44.0566 229.892 44.0748 229.827 44.0748H229.241L231.478 38.4805H232.243L234.48 44.0748Z" fill="#A5A5A5"/>
<path d="M193.724 51.8217C193.908 51.8217 194.07 51.7974 194.209 51.7486C194.351 51.6999 194.47 51.6324 194.565 51.546C194.662 51.4574 194.736 51.3522 194.784 51.2303C194.833 51.1085 194.857 50.9745 194.857 50.8283C194.857 50.5249 194.763 50.2879 194.575 50.1173C194.389 49.9468 194.105 49.8615 193.724 49.8615H192.96V51.8217H193.724ZM193.724 49.3531C194.026 49.3531 194.287 49.3886 194.508 49.4595C194.732 49.5281 194.917 49.6267 195.063 49.7552C195.21 49.8836 195.318 50.0387 195.389 50.2203C195.462 50.4019 195.499 50.6046 195.499 50.8283C195.499 51.0498 195.46 51.2525 195.382 51.4363C195.305 51.6202 195.191 51.7785 195.04 51.9114C194.892 52.0443 194.707 52.1485 194.485 52.2238C194.266 52.2969 194.012 52.3334 193.724 52.3334H192.96V54.1143H192.319V49.3531H193.724ZM196.667 51.423C196.773 51.1927 196.904 51.0133 197.059 50.8848C197.214 50.7541 197.403 50.6888 197.627 50.6888C197.698 50.6888 197.766 50.6965 197.83 50.712C197.896 50.7275 197.955 50.7519 198.006 50.7851L197.963 51.227C197.949 51.2824 197.916 51.3101 197.863 51.3101C197.832 51.3101 197.787 51.3034 197.727 51.2901C197.667 51.2769 197.599 51.2702 197.524 51.2702C197.418 51.2702 197.323 51.2857 197.238 51.3167C197.156 51.3477 197.082 51.3942 197.016 51.4563C196.952 51.5161 196.893 51.5914 196.84 51.6822C196.789 51.7708 196.742 51.8727 196.7 51.9879V54.1143H196.105V50.7486H196.444C196.509 50.7486 196.553 50.7608 196.577 50.7851C196.602 50.8095 196.618 50.8516 196.627 50.9114L196.667 51.423ZM199.151 50.7486V54.1143H198.559V50.7486H199.151ZM199.277 49.692C199.277 49.7496 199.265 49.8039 199.24 49.8548C199.218 49.9036 199.187 49.9479 199.147 49.9877C199.11 50.0254 199.064 50.0553 199.011 50.0774C198.96 50.0996 198.906 50.1107 198.848 50.1107C198.791 50.1107 198.736 50.0996 198.685 50.0774C198.637 50.0553 198.593 50.0254 198.556 49.9877C198.518 49.9479 198.488 49.9036 198.466 49.8548C198.444 49.8039 198.433 49.7496 198.433 49.692C198.433 49.6344 198.444 49.5802 198.466 49.5292C198.488 49.4761 198.518 49.4307 198.556 49.393C198.593 49.3531 198.637 49.3221 198.685 49.3C198.736 49.2778 198.791 49.2667 198.848 49.2667C198.906 49.2667 198.96 49.2778 199.011 49.3C199.064 49.3221 199.11 49.3531 199.147 49.393C199.187 49.4307 199.218 49.4761 199.24 49.5292C199.265 49.5802 199.277 49.6344 199.277 49.692ZM203.006 50.7486L201.634 54.1143H201.102L199.73 50.7486H200.212C200.261 50.7486 200.301 50.7608 200.332 50.7851C200.363 50.8095 200.384 50.8383 200.395 50.8715L201.249 53.0378C201.275 53.1197 201.298 53.1995 201.318 53.277C201.338 53.3545 201.357 53.432 201.375 53.5096C201.393 53.432 201.411 53.3545 201.431 53.277C201.451 53.1995 201.476 53.1197 201.504 53.0378L202.368 50.8715C202.382 50.8361 202.404 50.8073 202.435 50.7851C202.466 50.7608 202.502 50.7486 202.544 50.7486H203.006ZM205.301 52.5992C205.029 52.6081 204.796 52.6302 204.603 52.6657C204.413 52.6989 204.257 52.7432 204.135 52.7986C204.015 52.8539 203.928 52.9193 203.873 52.9946C203.819 53.0699 203.793 53.1541 203.793 53.2471C203.793 53.3357 203.807 53.4121 203.836 53.4763C203.865 53.5406 203.904 53.5937 203.952 53.6358C204.003 53.6757 204.062 53.7056 204.128 53.7255C204.197 53.7432 204.27 53.7521 204.348 53.7521C204.452 53.7521 204.547 53.7421 204.633 53.7222C204.72 53.7001 204.801 53.669 204.876 53.6292C204.953 53.5893 205.027 53.5417 205.095 53.4863C205.166 53.4309 205.235 53.3678 205.301 53.2969V52.5992ZM203.391 51.2237C203.577 51.0443 203.777 50.9103 203.992 50.8217C204.207 50.7331 204.445 50.6888 204.706 50.6888C204.895 50.6888 205.062 50.7198 205.208 50.7818C205.354 50.8438 205.477 50.9302 205.577 51.041C205.677 51.1517 205.752 51.2857 205.803 51.443C205.854 51.6002 205.879 51.773 205.879 51.9613V54.1143H205.617C205.559 54.1143 205.515 54.1054 205.484 54.0877C205.453 54.0677 205.429 54.0301 205.411 53.9747L205.344 53.6558C205.256 53.7377 205.169 53.8108 205.085 53.875C205.001 53.9371 204.912 53.9902 204.819 54.0345C204.726 54.0766 204.627 54.1087 204.52 54.1309C204.416 54.1552 204.3 54.1674 204.172 54.1674C204.041 54.1674 203.918 54.1497 203.803 54.1143C203.688 54.0766 203.587 54.0212 203.5 53.9481C203.416 53.875 203.349 53.7831 203.298 53.6724C203.249 53.5594 203.225 53.4265 203.225 53.2737C203.225 53.1408 203.261 53.0134 203.334 52.8916C203.407 52.7675 203.526 52.6579 203.69 52.5627C203.854 52.4674 204.067 52.3899 204.331 52.3301C204.595 52.2681 204.918 52.2326 205.301 52.2238V51.9613C205.301 51.6999 205.245 51.5028 205.132 51.3699C205.019 51.2348 204.854 51.1672 204.637 51.1672C204.491 51.1672 204.368 51.186 204.268 51.2237C204.17 51.2591 204.085 51.3001 204.012 51.3466C203.941 51.3909 203.879 51.4319 203.826 51.4696C203.775 51.505 203.724 51.5227 203.673 51.5227C203.633 51.5227 203.599 51.5127 203.57 51.4928C203.541 51.4707 203.517 51.4441 203.497 51.4131L203.391 51.2237ZM209.123 51.3466C209.105 51.371 209.087 51.3898 209.069 51.4031C209.052 51.4164 209.027 51.423 208.996 51.423C208.963 51.423 208.927 51.4098 208.887 51.3832C208.847 51.3544 208.797 51.3234 208.737 51.2901C208.68 51.2569 208.608 51.227 208.521 51.2004C208.437 51.1716 208.333 51.1572 208.209 51.1572C208.043 51.1572 207.897 51.1871 207.77 51.247C207.644 51.3045 207.538 51.3887 207.451 51.4995C207.367 51.6102 207.303 51.7442 207.259 51.9015C207.217 52.0587 207.195 52.2348 207.195 52.4298C207.195 52.6335 207.219 52.8152 207.265 52.9746C207.312 53.1319 207.377 53.2648 207.461 53.3733C207.548 53.4797 207.651 53.5616 207.77 53.6192C207.892 53.6746 208.028 53.7023 208.179 53.7023C208.323 53.7023 208.441 53.6857 208.534 53.6524C208.627 53.617 208.704 53.5782 208.764 53.5361C208.826 53.4941 208.877 53.4564 208.917 53.4232C208.959 53.3877 209 53.37 209.039 53.37C209.088 53.37 209.126 53.3888 209.152 53.4265L209.319 53.6425C209.245 53.7333 209.162 53.8108 209.069 53.875C208.976 53.9393 208.876 53.9935 208.767 54.0378C208.661 54.0799 208.549 54.1109 208.431 54.1309C208.314 54.1508 208.194 54.1608 208.073 54.1608C207.862 54.1608 207.666 54.122 207.485 54.0445C207.305 53.967 207.149 53.8551 207.016 53.7089C206.883 53.5605 206.779 53.3789 206.704 53.164C206.628 52.9492 206.591 52.7044 206.591 52.4298C206.591 52.1795 206.625 51.948 206.694 51.7354C206.765 51.5227 206.867 51.34 206.999 51.1871C207.135 51.0321 207.3 50.9114 207.495 50.825C207.692 50.7386 207.918 50.6954 208.172 50.6954C208.409 50.6954 208.618 50.7342 208.797 50.8117C208.979 50.887 209.139 50.9944 209.279 51.134L209.123 51.3466ZM212.857 50.7486L210.98 55.1077C210.96 55.152 210.935 55.1874 210.904 55.214C210.875 55.2406 210.829 55.2539 210.767 55.2539H210.329L210.944 53.9182L209.555 50.7486H210.066C210.117 50.7486 210.157 50.7619 210.186 50.7884C210.217 50.8128 210.238 50.8405 210.249 50.8715L211.15 52.9913C211.185 53.0843 211.215 53.1817 211.239 53.2836C211.27 53.1795 211.303 53.081 211.339 52.9879L212.213 50.8715C212.226 50.8361 212.248 50.8073 212.279 50.7851C212.312 50.7608 212.349 50.7486 212.389 50.7486H212.857ZM214.865 51.8716H216.506V52.3733H214.865V51.8716ZM222.242 49.8947H220.7V54.1143H220.059V49.8947H218.514V49.3531H222.242V49.8947ZM224.25 52.0643C224.25 51.927 224.23 51.8018 224.19 51.6888C224.153 51.5737 224.096 51.4751 224.021 51.3931C223.948 51.309 223.858 51.2447 223.752 51.2004C223.645 51.1539 223.525 51.1307 223.39 51.1307C223.106 51.1307 222.881 51.2137 222.715 51.3799C222.551 51.5438 222.449 51.7719 222.409 52.0643H224.25ZM224.729 53.6425C224.655 53.7311 224.568 53.8086 224.466 53.875C224.364 53.9393 224.255 53.9924 224.137 54.0345C224.022 54.0766 223.902 54.1076 223.778 54.1275C223.654 54.1497 223.531 54.1608 223.409 54.1608C223.177 54.1608 222.962 54.122 222.765 54.0445C222.57 53.9647 222.401 53.8496 222.257 53.6989C222.115 53.5461 222.004 53.3578 221.924 53.1341C221.845 52.9104 221.805 52.6535 221.805 52.3633C221.805 52.1285 221.84 51.9092 221.911 51.7055C221.984 51.5017 222.088 51.3256 222.223 51.1772C222.358 51.0266 222.524 50.9092 222.718 50.825C222.913 50.7386 223.133 50.6954 223.376 50.6954C223.578 50.6954 223.764 50.7298 223.934 50.7984C224.107 50.8649 224.256 50.9623 224.38 51.0908C224.506 51.217 224.604 51.3743 224.675 51.5626C224.746 51.7486 224.782 51.9613 224.782 52.2005C224.782 52.2935 224.772 52.3556 224.752 52.3866C224.732 52.4176 224.694 52.4331 224.639 52.4331H222.389C222.396 52.6457 222.425 52.8307 222.476 52.9879C222.529 53.1452 222.602 53.277 222.695 53.3833C222.788 53.4874 222.899 53.566 223.027 53.6192C223.156 53.6702 223.3 53.6956 223.459 53.6956C223.608 53.6956 223.735 53.679 223.841 53.6458C223.95 53.6103 224.043 53.5727 224.121 53.5328C224.198 53.493 224.262 53.4564 224.313 53.4232C224.366 53.3877 224.412 53.37 224.449 53.37C224.498 53.37 224.536 53.3888 224.562 53.4265L224.729 53.6425ZM226.07 51.423C226.176 51.1927 226.307 51.0133 226.462 50.8848C226.617 50.7541 226.806 50.6888 227.03 50.6888C227.101 50.6888 227.168 50.6965 227.232 50.712C227.299 50.7275 227.358 50.7519 227.409 50.7851L227.365 51.227C227.352 51.2824 227.319 51.3101 227.266 51.3101C227.235 51.3101 227.189 51.3034 227.129 51.2901C227.07 51.2769 227.002 51.2702 226.927 51.2702C226.82 51.2702 226.725 51.2857 226.641 51.3167C226.559 51.3477 226.485 51.3942 226.418 51.4563C226.354 51.5161 226.296 51.5914 226.242 51.6822C226.191 51.7708 226.145 51.8727 226.103 51.9879V54.1143H225.508V50.7486H225.847C225.911 50.7486 225.956 50.7608 225.98 50.7851C226.004 50.8095 226.021 50.8516 226.03 50.9114L226.07 51.423ZM227.929 54.1143V50.7486H228.284C228.368 50.7486 228.42 50.7896 228.44 50.8715L228.483 51.217C228.607 51.0642 228.747 50.9391 228.902 50.8416C229.057 50.7441 229.237 50.6954 229.44 50.6954C229.666 50.6954 229.849 50.7585 229.989 50.8848C230.13 51.0111 230.232 51.1816 230.294 51.3965C230.343 51.2746 230.405 51.1694 230.48 51.0808C230.558 50.9922 230.644 50.9191 230.739 50.8615C230.835 50.804 230.935 50.7619 231.042 50.7353C231.15 50.7087 231.26 50.6954 231.371 50.6954C231.548 50.6954 231.705 50.7242 231.842 50.7818C231.982 50.8372 232.099 50.9191 232.195 51.0277C232.292 51.1362 232.366 51.2702 232.417 51.4297C232.468 51.587 232.494 51.7675 232.494 51.9713V54.1143H231.899V51.9713C231.899 51.7077 231.841 51.5083 231.726 51.3732C231.611 51.2359 231.445 51.1672 231.228 51.1672C231.13 51.1672 231.037 51.1849 230.949 51.2204C230.862 51.2536 230.786 51.3034 230.719 51.3699C230.653 51.4363 230.6 51.5205 230.56 51.6224C230.522 51.7221 230.504 51.8384 230.504 51.9713V54.1143H229.909V51.9713C229.909 51.701 229.855 51.4995 229.746 51.3666C229.637 51.2337 229.479 51.1672 229.271 51.1672C229.125 51.1672 228.99 51.2071 228.866 51.2868C228.742 51.3643 228.627 51.4707 228.523 51.6058V54.1143H227.929ZM235.353 51.3034C235.326 51.3522 235.285 51.3765 235.23 51.3765C235.197 51.3765 235.159 51.3643 235.117 51.34C235.075 51.3156 235.023 51.289 234.961 51.2602C234.901 51.2292 234.829 51.2015 234.745 51.1772C234.661 51.1506 234.561 51.1373 234.446 51.1373C234.346 51.1373 234.256 51.1506 234.177 51.1772C234.097 51.2015 234.028 51.2359 233.971 51.2802C233.915 51.3245 233.872 51.3765 233.841 51.4363C233.812 51.4939 233.798 51.557 233.798 51.6257C233.798 51.7121 233.822 51.7841 233.871 51.8417C233.922 51.8993 233.988 51.9491 234.07 51.9912C234.152 52.0333 234.245 52.0709 234.349 52.1042C234.454 52.1352 234.56 52.1695 234.668 52.2071C234.779 52.2426 234.887 52.2825 234.991 52.3268C235.095 52.3711 235.188 52.4264 235.27 52.4929C235.352 52.5593 235.417 52.6413 235.466 52.7387C235.517 52.834 235.542 52.9492 235.542 53.0843C235.542 53.2393 235.514 53.3833 235.459 53.5162C235.404 53.6469 235.322 53.761 235.213 53.8584C235.105 53.9537 234.972 54.029 234.815 54.0844C234.657 54.1397 234.476 54.1674 234.27 54.1674C234.035 54.1674 233.822 54.1298 233.632 54.0545C233.441 53.9769 233.28 53.8784 233.147 53.7588L233.286 53.5328C233.304 53.504 233.325 53.4819 233.349 53.4664C233.374 53.4509 233.405 53.4431 233.442 53.4431C233.482 53.4431 233.524 53.4586 233.569 53.4896C233.613 53.5206 233.666 53.555 233.728 53.5926C233.792 53.6303 233.87 53.6646 233.961 53.6956C234.051 53.7266 234.164 53.7421 234.3 53.7421C234.415 53.7421 234.516 53.7277 234.602 53.6989C234.688 53.6679 234.76 53.627 234.818 53.576C234.875 53.5251 234.918 53.4664 234.944 53.3999C234.973 53.3335 234.987 53.2626 234.987 53.1873C234.987 53.0943 234.962 53.0178 234.911 52.958C234.862 52.896 234.797 52.844 234.715 52.8019C234.633 52.7576 234.539 52.7199 234.432 52.6889C234.328 52.6557 234.221 52.6214 234.11 52.5859C234.002 52.5505 233.894 52.5106 233.788 52.4663C233.684 52.4198 233.591 52.3622 233.509 52.2935C233.427 52.2249 233.36 52.1407 233.309 52.041C233.261 51.9391 233.236 51.8162 233.236 51.6722C233.236 51.5438 233.263 51.4208 233.316 51.3034C233.369 51.1838 233.447 51.0797 233.549 50.9911C233.651 50.9003 233.776 50.8283 233.924 50.7752C234.073 50.722 234.242 50.6954 234.432 50.6954C234.654 50.6954 234.852 50.7309 235.027 50.8017C235.204 50.8704 235.357 50.9656 235.486 51.0875L235.353 51.3034Z" fill="#A5A5A5"/>
<g clip-path="url(#clip2_121_806)">
<g filter="url(#filter1_d_121_806)">
<path fill-rule="evenodd" clip-rule="evenodd" d="M211.642 15.4206C212.478 15.0401 213.463 14.7999 214.559 14.9082C217.703 15.219 219.263 17.2853 219.542 17.6926L216.418 20.8931L226.098 20.9733L225.972 11.1046L223.715 13.4172C223.402 12.9924 220.293 8.97388 214.388 8.97388C211.791 8.97388 209.707 9.7424 208.158 10.6393L211.642 15.4206Z" fill="#2B4CB9"/>
</g>
<g filter="url(#filter2_d_121_806)">
<path fill-rule="evenodd" clip-rule="evenodd" d="M203.925 9.13395L206.274 11.4265C205.953 11.659 201.814 14.7726 201.814 20.7657C201.814 21.5852 201.891 22.3536 202.024 23.0703L208.017 22.8932C207.786 22.2028 207.666 21.4309 207.749 20.5944C208.064 17.4039 210.188 15.8443 210.55 15.5999L213.714 18.6879L213.794 9.00757L203.925 9.13395Z" fill="#5A96F6"/>
</g>
<g filter="url(#filter3_d_121_806)">
<path fill-rule="evenodd" clip-rule="evenodd" d="M204.229 28.9078L201.972 31.2204L201.846 21.3517L211.526 21.4319L208.402 24.6325C208.681 25.0397 210.241 27.1061 213.385 27.4168C216.875 27.7618 219.243 24.5715 219.243 24.5715L223.072 28.9204C223.072 28.9204 219.791 33.3512 213.556 33.3512C207.651 33.3512 204.541 29.3325 204.229 28.9078Z" fill="#BEBEBE"/>
</g>
</g>
</g>
<path d="M44.5747 35.2894H43.4669V27.1062H44.5747V35.2894ZM47.1362 26.558C47.2961 26.8283 47.4046 27.1139 47.4617 27.4146C47.5188 27.7154 47.5245 28.0123 47.4788 28.3055C47.4331 28.5986 47.338 28.8803 47.1933 29.1506C47.0486 29.4209 46.8564 29.6608 46.6165 29.8701L46.3082 29.6703C46.2511 29.636 46.2244 29.5922 46.2282 29.5389C46.2358 29.4818 46.2549 29.4361 46.2853 29.4019C46.3843 29.2801 46.4681 29.1335 46.5366 28.9622C46.6089 28.787 46.6546 28.6005 46.6736 28.4025C46.6965 28.2008 46.687 27.9933 46.6451 27.7801C46.607 27.5669 46.529 27.3613 46.4109 27.1633C46.3615 27.0834 46.3462 27.013 46.3653 26.9521C46.3881 26.8873 46.4357 26.8398 46.508 26.8093L47.1362 26.558ZM48.8707 35.2894V29.5047H49.4817C49.6264 29.5047 49.7158 29.5751 49.7501 29.716L49.8243 30.3098C50.0375 30.0472 50.2774 29.8321 50.5438 29.6646C50.8103 29.4971 51.1187 29.4133 51.469 29.4133C51.8573 29.4133 52.1713 29.5218 52.4112 29.7388C52.6548 29.9558 52.83 30.2489 52.9366 30.6182C53.0203 30.4088 53.1269 30.228 53.2563 30.0757C53.3896 29.9234 53.5381 29.7978 53.7018 29.6988C53.8655 29.5998 54.0387 29.5275 54.2214 29.4818C54.408 29.4361 54.5964 29.4133 54.7868 29.4133C55.0913 29.4133 55.3616 29.4628 55.5977 29.5618C55.8375 29.6569 56.0393 29.7978 56.203 29.9843C56.3705 30.1709 56.498 30.4012 56.5856 30.6753C56.6731 30.9456 56.7169 31.2559 56.7169 31.6061V35.2894H55.6947V31.6061C55.6947 31.1531 55.5958 30.8105 55.3978 30.5782C55.1998 30.3422 54.9143 30.2242 54.5412 30.2242C54.3737 30.2242 54.2138 30.2546 54.0615 30.3156C53.9131 30.3727 53.7817 30.4583 53.6675 30.5725C53.5533 30.6867 53.4619 30.8314 53.3934 31.0065C53.3287 31.1778 53.2963 31.3777 53.2963 31.6061V35.2894H52.2741V31.6061C52.2741 31.1417 52.1809 30.7952 51.9943 30.5668C51.8078 30.3384 51.5356 30.2242 51.1777 30.2242C50.9265 30.2242 50.6942 30.2927 50.481 30.4298C50.2678 30.563 50.0718 30.7458 49.8928 30.978V35.2894H48.8707ZM62.1434 30.3441C62.269 30.2033 62.4022 30.0757 62.5431 29.9615C62.684 29.8473 62.8324 29.7502 62.9885 29.6703C63.1484 29.5865 63.3159 29.5237 63.491 29.4818C63.67 29.4361 63.8622 29.4133 64.0678 29.4133C64.3838 29.4133 64.6617 29.4666 64.9015 29.5732C65.1452 29.676 65.347 29.8245 65.5069 30.0186C65.6706 30.209 65.7943 30.4393 65.878 30.7096C65.9618 30.9799 66.0037 31.2787 66.0037 31.6061V35.2894H64.9815V31.6061C64.9815 31.1683 64.8806 30.8295 64.6788 30.5897C64.4809 30.346 64.1782 30.2242 63.7709 30.2242C63.4701 30.2242 63.1884 30.2965 62.9257 30.4412C62.6668 30.5859 62.427 30.7819 62.2062 31.0294V35.2894H61.184V29.5047H61.795C61.9397 29.5047 62.0291 29.5751 62.0634 29.716L62.1434 30.3441ZM69.991 29.4133C70.4135 29.4133 70.7942 29.4837 71.1331 29.6246C71.4719 29.7654 71.7612 29.9653 72.0011 30.2242C72.2409 30.4831 72.4236 30.7971 72.5493 31.1664C72.6787 31.5319 72.7434 31.9412 72.7434 32.3942C72.7434 32.851 72.6787 33.2622 72.5493 33.6277C72.4236 33.9931 72.2409 34.3053 72.0011 34.5642C71.7612 34.8231 71.4719 35.0229 71.1331 35.1638C70.7942 35.3008 70.4135 35.3694 69.991 35.3694C69.5646 35.3694 69.1801 35.3008 68.8374 35.1638C68.4986 35.0229 68.2093 34.8231 67.9694 34.5642C67.7296 34.3053 67.5449 33.9931 67.4155 33.6277C67.2899 33.2622 67.2271 32.851 67.2271 32.3942C67.2271 31.9412 67.2899 31.5319 67.4155 31.1664C67.5449 30.7971 67.7296 30.4831 67.9694 30.2242C68.2093 29.9653 68.4986 29.7654 68.8374 29.6246C69.1801 29.4837 69.5646 29.4133 69.991 29.4133ZM69.991 34.5756C70.562 34.5756 70.9884 34.3853 71.2701 34.0046C71.5518 33.6201 71.6927 33.0852 71.6927 32.3999C71.6927 31.7108 71.5518 31.174 71.2701 30.7895C70.9884 30.405 70.562 30.2128 69.991 30.2128C69.7016 30.2128 69.4485 30.2623 69.2315 30.3612C69.0183 30.4602 68.8393 30.603 68.6947 30.7895C68.5538 30.9761 68.4472 31.2064 68.3749 31.4805C68.3064 31.7508 68.2721 32.0573 68.2721 32.3999C68.2721 33.0852 68.4129 33.6201 68.6947 34.0046C68.9802 34.3853 69.4123 34.5756 69.991 34.5756ZM75.7083 35.3808C75.2514 35.3808 74.8993 35.2533 74.6518 34.9982C74.4082 34.7431 74.2863 34.3757 74.2863 33.8961V30.3555H73.5897C73.5287 30.3555 73.4774 30.3384 73.4355 30.3041C73.3936 30.2661 73.3727 30.209 73.3727 30.1328V29.7274L74.3206 29.6075L74.5547 27.8201C74.5662 27.763 74.5909 27.7173 74.629 27.683C74.6709 27.6449 74.7242 27.6259 74.7889 27.6259H75.3028V29.6189H76.976V30.3555H75.3028V33.8275C75.3028 34.0712 75.3618 34.252 75.4798 34.37C75.5979 34.4881 75.7501 34.5471 75.9367 34.5471C76.0433 34.5471 76.1347 34.5337 76.2108 34.5071C76.2907 34.4766 76.3593 34.4443 76.4164 34.41C76.4735 34.3757 76.5211 34.3453 76.5591 34.3186C76.601 34.2882 76.6372 34.273 76.6676 34.273C76.7209 34.273 76.7685 34.3053 76.8104 34.37L77.1073 34.8554C76.9322 35.0191 76.7209 35.1486 76.4735 35.2437C76.226 35.3351 75.9709 35.3808 75.7083 35.3808ZM84.0828 32.6854C83.6146 32.7007 83.2148 32.7387 82.8836 32.7996C82.5562 32.8567 82.2878 32.9329 82.0784 33.0281C81.8729 33.1232 81.7225 33.2355 81.6273 33.365C81.5359 33.4944 81.4903 33.6391 81.4903 33.799C81.4903 33.9513 81.515 34.0826 81.5645 34.193C81.614 34.3034 81.6806 34.3948 81.7644 34.4671C81.8519 34.5356 81.9528 34.587 82.067 34.6213C82.185 34.6518 82.3107 34.667 82.4439 34.667C82.6229 34.667 82.7866 34.6498 82.935 34.6156C83.0835 34.5775 83.2225 34.5242 83.3519 34.4557C83.4851 34.3872 83.6108 34.3053 83.7288 34.2101C83.8506 34.115 83.9686 34.0065 84.0828 33.8846V32.6854ZM80.7993 30.3213C81.1191 30.0129 81.4636 29.7826 81.8329 29.6303C82.2022 29.478 82.6114 29.4019 83.0607 29.4019C83.3843 29.4019 83.6717 29.4552 83.9229 29.5618C84.1742 29.6684 84.3855 29.8168 84.5568 30.0072C84.7281 30.1975 84.8576 30.4279 84.9451 30.6982C85.0327 30.9685 85.0765 31.2654 85.0765 31.589V35.2894H84.6253C84.5264 35.2894 84.4502 35.2742 84.3969 35.2437C84.3436 35.2095 84.3017 35.1448 84.2713 35.0496L84.1571 34.5014C84.0048 34.6422 83.8563 34.7679 83.7117 34.8783C83.567 34.9849 83.4147 35.0762 83.2548 35.1524C83.0949 35.2247 82.9236 35.2799 82.7409 35.318C82.5619 35.3599 82.3621 35.3808 82.1413 35.3808C81.9166 35.3808 81.7054 35.3503 81.5074 35.2894C81.3094 35.2247 81.1362 35.1295 80.9877 35.0039C80.8431 34.8783 80.727 34.7203 80.6394 34.5299C80.5556 34.3358 80.5138 34.1073 80.5138 33.8447C80.5138 33.6162 80.5766 33.3973 80.7022 33.188C80.8278 32.9748 81.0315 32.7863 81.3132 32.6226C81.595 32.4589 81.9623 32.3257 82.4154 32.2229C82.8684 32.1163 83.4242 32.0554 84.0828 32.0401V31.589C84.0828 31.1398 83.9858 30.801 83.7916 30.5725C83.5974 30.3403 83.3138 30.2242 82.9407 30.2242C82.6895 30.2242 82.4782 30.2566 82.3069 30.3213C82.1394 30.3822 81.9928 30.4526 81.8672 30.5326C81.7453 30.6087 81.6387 30.6791 81.5474 30.7438C81.4598 30.8048 81.3722 30.8352 81.2847 30.8352C81.2162 30.8352 81.1571 30.8181 81.1077 30.7838C81.0582 30.7458 81.0163 30.7001 80.982 30.6468L80.7993 30.3213ZM90.5121 30.6639C90.6948 30.268 90.9194 29.9596 91.1859 29.7388C91.4524 29.5142 91.7779 29.4019 92.1624 29.4019C92.2843 29.4019 92.4004 29.4152 92.5108 29.4418C92.625 29.4685 92.7259 29.5104 92.8134 29.5675L92.7392 30.327C92.7164 30.4222 92.6593 30.4697 92.5679 30.4697C92.5146 30.4697 92.4365 30.4583 92.3338 30.4355C92.231 30.4126 92.1148 30.4012 91.9854 30.4012C91.8027 30.4012 91.639 30.4279 91.4943 30.4812C91.3534 30.5345 91.2259 30.6144 91.1117 30.721C91.0013 30.8238 90.9004 30.9532 90.809 31.1093C90.7215 31.2616 90.6415 31.4367 90.5692 31.6347V35.2894H89.547V29.5047H90.1295C90.2399 29.5047 90.316 29.5256 90.3579 29.5675C90.3998 29.6094 90.4283 29.6817 90.4436 29.7845L90.5121 30.6639ZM95.9114 29.4133C96.334 29.4133 96.7147 29.4837 97.0535 29.6246C97.3923 29.7654 97.6817 29.9653 97.9215 30.2242C98.1613 30.4831 98.3441 30.7971 98.4697 31.1664C98.5991 31.5319 98.6639 31.9412 98.6639 32.3942C98.6639 32.851 98.5991 33.2622 98.4697 33.6277C98.3441 33.9931 98.1613 34.3053 97.9215 34.5642C97.6817 34.8231 97.3923 35.0229 97.0535 35.1638C96.7147 35.3008 96.334 35.3694 95.9114 35.3694C95.485 35.3694 95.1005 35.3008 94.7579 35.1638C94.419 35.0229 94.1297 34.8231 93.8899 34.5642C93.65 34.3053 93.4654 33.9931 93.3359 33.6277C93.2103 33.2622 93.1475 32.851 93.1475 32.3942C93.1475 31.9412 93.2103 31.5319 93.3359 31.1664C93.4654 30.7971 93.65 30.4831 93.8899 30.2242C94.1297 29.9653 94.419 29.7654 94.7579 29.6246C95.1005 29.4837 95.485 29.4133 95.9114 29.4133ZM95.9114 34.5756C96.4824 34.5756 96.9088 34.3853 97.1906 34.0046C97.4723 33.6201 97.6131 33.0852 97.6131 32.3999C97.6131 31.7108 97.4723 31.174 97.1906 30.7895C96.9088 30.405 96.4824 30.2128 95.9114 30.2128C95.6221 30.2128 95.3689 30.2623 95.1519 30.3612C94.9387 30.4602 94.7598 30.603 94.6151 30.7895C94.4742 30.9761 94.3676 31.2064 94.2953 31.4805C94.2268 31.7508 94.1925 32.0573 94.1925 32.3999C94.1925 33.0852 94.3334 33.6201 94.6151 34.0046C94.9006 34.3853 95.3327 34.5756 95.9114 34.5756ZM100.975 33.8961C101.162 34.1473 101.366 34.3243 101.586 34.4271C101.811 34.5299 102.056 34.5813 102.323 34.5813C102.867 34.5813 103.284 34.3891 103.574 34.0046C103.863 33.6201 104.008 33.0471 104.008 32.2857C104.008 31.5776 103.878 31.0579 103.619 30.7267C103.364 30.3917 102.999 30.2242 102.523 30.2242C102.192 30.2242 101.902 30.3003 101.655 30.4526C101.411 30.6049 101.185 30.82 100.975 31.0979V33.8961ZM100.975 30.3384C101.219 30.0567 101.493 29.8321 101.798 29.6646C102.106 29.4971 102.46 29.4133 102.86 29.4133C103.199 29.4133 103.503 29.478 103.773 29.6075C104.048 29.7369 104.28 29.9253 104.47 30.1728C104.66 30.4164 104.805 30.7134 104.904 31.0636C105.007 31.4139 105.058 31.8079 105.058 32.2457C105.058 32.714 105.001 33.1404 104.887 33.5249C104.773 33.9094 104.607 34.2387 104.39 34.5128C104.177 34.7831 103.916 34.9944 103.608 35.1467C103.299 35.2951 102.953 35.3694 102.569 35.3694C102.188 35.3694 101.866 35.2989 101.603 35.1581C101.345 35.0134 101.118 34.8097 100.924 34.5471L100.873 35.0724C100.842 35.2171 100.754 35.2894 100.61 35.2894H99.9531V26.8778H100.975V30.3384ZM108.782 29.4133C109.205 29.4133 109.586 29.4837 109.924 29.6246C110.263 29.7654 110.553 29.9653 110.792 30.2242C111.032 30.4831 111.215 30.7971 111.341 31.1664C111.47 31.5319 111.535 31.9412 111.535 32.3942C111.535 32.851 111.47 33.2622 111.341 33.6277C111.215 33.9931 111.032 34.3053 110.792 34.5642C110.553 34.8231 110.263 35.0229 109.924 35.1638C109.586 35.3008 109.205 35.3694 108.782 35.3694C108.356 35.3694 107.971 35.3008 107.629 35.1638C107.29 35.0229 107.001 34.8231 106.761 34.5642C106.521 34.3053 106.336 33.9931 106.207 33.6277C106.081 33.2622 106.018 32.851 106.018 32.3942C106.018 31.9412 106.081 31.5319 106.207 31.1664C106.336 30.7971 106.521 30.4831 106.761 30.2242C107.001 29.9653 107.29 29.7654 107.629 29.6246C107.971 29.4837 108.356 29.4133 108.782 29.4133ZM108.782 34.5756C109.353 34.5756 109.78 34.3853 110.062 34.0046C110.343 33.6201 110.484 33.0852 110.484 32.3999C110.484 31.7108 110.343 31.174 110.062 30.7895C109.78 30.405 109.353 30.2128 108.782 30.2128C108.493 30.2128 108.24 30.2623 108.023 30.3612C107.81 30.4602 107.631 30.603 107.486 30.7895C107.345 30.9761 107.239 31.2064 107.166 31.4805C107.098 31.7508 107.064 32.0573 107.064 32.3999C107.064 33.0852 107.204 33.6201 107.486 34.0046C107.772 34.3853 108.204 34.5756 108.782 34.5756ZM114.5 35.3808C114.043 35.3808 113.691 35.2533 113.443 34.9982C113.2 34.7431 113.078 34.3757 113.078 33.8961V30.3555H112.381C112.32 30.3555 112.269 30.3384 112.227 30.3041C112.185 30.2661 112.164 30.209 112.164 30.1328V29.7274L113.112 29.6075L113.346 27.8201C113.358 27.763 113.382 27.7173 113.42 27.683C113.462 27.6449 113.516 27.6259 113.58 27.6259H114.094V29.6189H115.767V30.3555H114.094V33.8275C114.094 34.0712 114.153 34.252 114.271 34.37C114.389 34.4881 114.542 34.5471 114.728 34.5471C114.835 34.5471 114.926 34.5337 115.002 34.5071C115.082 34.4766 115.151 34.4443 115.208 34.41C115.265 34.3757 115.312 34.3453 115.351 34.3186C115.392 34.2882 115.429 34.273 115.459 34.273C115.512 34.273 115.56 34.3053 115.602 34.37L115.899 34.8554C115.724 35.0191 115.512 35.1486 115.265 35.2437C115.017 35.3351 114.762 35.3808 114.5 35.3808Z" fill="black"/>
<rect x="10.6049" y="20.3948" width="21.2105" height="21.2105" rx="0.815789" fill="white" stroke="#C1C1C1" stroke-width="1.63158"/>
</g>
<defs>
<filter id="filter0_d_121_806" x="-1.63158" y="-0.815789" width="250.447" height="65.2632" filterUnits="userSpaceOnUse" color-interpolation-filters="sRGB">
<feFlood flood-opacity="0" result="BackgroundImageFix"/>
<feColorMatrix in="SourceAlpha" type="matrix" values="0 0 0 0 0 0 0 0 0 0 0 0 0 0 0 0 0 0 127 0" result="hardAlpha"/>
<feOffset dy="0.815789"/>
<feGaussianBlur stdDeviation="0.815789"/>
<feColorMatrix type="matrix" values="0 0 0 0 0 0 0 0 0 0 0 0 0 0 0 0 0 0 0.101138 0"/>
<feBlend mode="normal" in2="BackgroundImageFix" result="effect1_dropShadow_121_806"/>
<feBlend mode="normal" in="SourceGraphic" in2="effect1_dropShadow_121_806" result="shape"/>
</filter>
<filter id="filter1_d_121_806" x="207.342" y="8.15809" width="19.571" height="13.631" filterUnits="userSpaceOnUse" color-interpolation-filters="sRGB">
<feFlood flood-opacity="0" result="BackgroundImageFix"/>
<feColorMatrix in="SourceAlpha" type="matrix" values="0 0 0 0 0 0 0 0 0 0 0 0 0 0 0 0 0 0 127 0" result="hardAlpha"/>
<feOffset/>
<feGaussianBlur stdDeviation="0.407895"/>
<feColorMatrix type="matrix" values="0 0 0 0 0 0 0 0 0 0 0 0 0 0 0 0 0 0 0.5 0"/>
<feBlend mode="normal" in2="BackgroundImageFix" result="effect1_dropShadow_121_806"/>
<feBlend mode="normal" in="SourceGraphic" in2="effect1_dropShadow_121_806" result="shape"/>
</filter>
<filter id="filter2_d_121_806" x="200.999" y="8.19178" width="13.612" height="15.6943" filterUnits="userSpaceOnUse" color-interpolation-filters="sRGB">
<feFlood flood-opacity="0" result="BackgroundImageFix"/>
<feColorMatrix in="SourceAlpha" type="matrix" values="0 0 0 0 0 0 0 0 0 0 0 0 0 0 0 0 0 0 127 0" result="hardAlpha"/>
<feOffset/>
<feGaussianBlur stdDeviation="0.407895"/>
<feColorMatrix type="matrix" values="0 0 0 0 0 0 0 0 0 0 0 0 0 0 0 0 0 0 0.5 0"/>
<feBlend mode="normal" in2="BackgroundImageFix" result="effect1_dropShadow_121_806"/>
<feBlend mode="normal" in="SourceGraphic" in2="effect1_dropShadow_121_806" result="shape"/>
</filter>
<filter id="filter3_d_121_806" x="201.03" y="20.5359" width="22.8581" height="13.6311" filterUnits="userSpaceOnUse" color-interpolation-filters="sRGB">
<feFlood flood-opacity="0" result="BackgroundImageFix"/>
<feColorMatrix in="SourceAlpha" type="matrix" values="0 0 0 0 0 0 0 0 0 0 0 0 0 0 0 0 0 0 127 0" result="hardAlpha"/>
<feOffset/>
<feGaussianBlur stdDeviation="0.407895"/>
<feColorMatrix type="matrix" values="0 0 0 0 0 0 0 0 0 0 0 0 0 0 0 0 0 0 0.382529 0"/>
<feBlend mode="normal" in2="BackgroundImageFix" result="effect1_dropShadow_121_806"/>
<feBlend mode="normal" in="SourceGraphic" in2="effect1_dropShadow_121_806" result="shape"/>
</filter>
<clipPath id="clip0_121_806">
<rect width="247.184" height="62" fill="white"/>
</clipPath>
<clipPath id="clip1_121_806">
<rect width="45.6842" height="46.5" fill="white" transform="translate(191.711 8.97363)"/>
</clipPath>
<clipPath id="clip2_121_806">
<rect width="25.2895" height="24.4737" fill="white" transform="translate(201.029 8.97363)"/>
</clipPath>
</defs>
</svg>
