<svg width="18" height="18" viewBox="0 0 18 18" fill="none" xmlns="http://www.w3.org/2000/svg">
<path d="M0.75 1.875H1.65424C2.13263 1.875 2.37183 1.875 2.56628 1.96174C2.73771 2.03821 2.88415 2.16138 2.98886 2.31717C3.10763 2.49388 3.14862 2.72954 3.23058 3.20085L3.45652 4.5M3.45652 4.5L3.99173 7.57743C4.17091 8.60771 4.2605 9.12285 4.52583 9.49395C4.75945 9.8207 5.08606 10.0695 5.46311 10.208C5.89133 10.3654 6.41176 10.315 7.45264 10.2143L13.9605 9.58447C14.2954 9.55205 14.4629 9.53585 14.6046 9.50086C15.3934 9.30603 15.9859 8.65339 16.1038 7.84952C16.125 7.70514 16.125 7.53688 16.125 7.20038V7.20038C16.125 6.84286 16.125 6.6641 16.1019 6.51329C15.9727 5.6714 15.3244 5.00372 14.4867 4.84966C14.3367 4.82206 14.158 4.81677 13.8006 4.8062L3.45652 4.5Z" stroke="#2C3691" stroke-width="1.2" stroke-linecap="round" stroke-linejoin="round"/>
<circle cx="6.375" cy="14.25" r="1.5" stroke="#2C3691" stroke-width="1.2"/>
<circle cx="13.5" cy="14.25" r="1.5" stroke="#2C3691" stroke-width="1.2"/>
</svg>
