<svg width="20" height="20" viewBox="0 0 20 20" fill="none" xmlns="http://www.w3.org/2000/svg">
<path d="M0.833008 2.08325H1.98725C2.46564 2.08325 2.70483 2.08325 2.89929 2.16999C3.07071 2.24646 3.21716 2.36963 3.32186 2.52542C3.44064 2.70214 3.48162 2.93779 3.56359 3.40911L3.84025 4.99992M3.84025 4.99992L4.4914 8.74402C4.67058 9.77429 4.76017 10.2894 5.0255 10.6605C5.25913 10.9873 5.58573 11.2361 5.96278 11.3746C6.391 11.5319 6.91144 11.4816 7.95232 11.3808L15.5113 10.6493C16.0723 10.595 16.3528 10.5679 16.5838 10.4861C17.2168 10.262 17.6951 9.73519 17.8572 9.08351C17.9163 8.84577 17.9163 8.56396 17.9163 8.00034V8.00034C17.9163 7.40148 17.9163 7.10205 17.8518 6.85411C17.6745 6.17346 17.1526 5.63597 16.4775 5.43861C16.2316 5.36672 15.9323 5.35786 15.3337 5.34014L3.84025 4.99992Z" stroke="#131313" stroke-width="1.5" stroke-linecap="round" stroke-linejoin="round"/>
<ellipse cx="7.08366" cy="15.8334" rx="1.66667" ry="1.66667" stroke="#131313" stroke-width="1.5"/>
<ellipse cx="14.9997" cy="15.8334" rx="1.66667" ry="1.66667" stroke="#131313" stroke-width="1.5"/>
</svg>
