<svg width="23" height="20" viewBox="0 0 23 20" fill="none" xmlns="http://www.w3.org/2000/svg">
<path d="M20.5637 7.98761C20.4183 3.56082 16.3889 0 11.4562 0C6.52354 0 2.49417 3.56082 2.34869 7.98761L1.69336 8.57988V12.5966L2.34422 13.1848V15.9216C2.34422 17.5217 3.78461 18.8235 5.55511 18.8235H6.36131C6.62998 19.5082 7.35343 20 8.20193 20H9.50365C10.3527 20 11.0766 19.5075 11.3448 18.8221C11.382 18.8227 11.4192 18.8235 11.4562 18.8235C14.5993 18.8235 17.2292 16.7994 17.8339 14.1176H19.5361L21.2191 12.5966V8.57988L20.5637 7.98761ZM11.4562 1.17647C15.3193 1.17647 18.5359 3.72467 19.1574 7.05882H17.8339C17.2292 4.3771 14.5993 2.35294 11.4562 2.35294C8.3131 2.35294 5.6832 4.3771 5.07851 7.05882H3.75501C4.37658 3.72467 7.59312 1.17647 11.4562 1.17647ZM16.4983 7.05882C14.3944 7.05314 12.9082 7.16894 11.683 5.5502L11.088 4.7642L10.5767 5.5969C9.83168 6.8102 8.82836 7.05882 7.55107 7.05882H6.41411C6.99359 5.03145 9.03446 3.52941 11.4562 3.52941C13.878 3.52941 15.9188 5.03145 16.4983 7.05882ZM4.94765 12.9412H3.91552L2.99507 12.1093V9.06718L3.91552 8.23529H4.94765V12.9412ZM3.64593 15.9216V14.1176H5.07725C5.32228 15.2147 5.90853 16.2217 6.77703 17.0306C6.59496 17.2064 6.45217 17.4156 6.36131 17.6471H5.55511C4.50237 17.6471 3.64593 16.873 3.64593 15.9216ZM9.50365 18.8235H8.20193C7.84301 18.8235 7.55107 18.5597 7.55107 18.2353C7.55107 17.9109 7.84301 17.6471 8.20193 17.6471H9.50365C9.86253 17.6471 10.1545 17.9109 10.1545 18.2353C10.1545 18.5597 9.86253 18.8235 9.50365 18.8235ZM16.6631 12.9412C16.6631 15.536 14.3273 17.6471 11.4562 17.6471C11.4189 17.6471 11.3813 17.6464 11.3437 17.6456C11.0746 16.9617 10.3515 16.4706 9.50365 16.4706C8.16722 16.4733 8.18852 16.4646 8.02195 16.4784C6.89197 15.5833 6.24936 14.3083 6.24936 12.9412V8.23529H7.55107C8.70296 8.23529 10.1058 8.06365 11.1917 6.86922C12.6244 8.2262 14.3753 8.23529 15.947 8.23529H16.6631V12.9412ZM19.9174 12.1093L18.9969 12.9412H17.9648V8.23529H18.9969L19.9174 9.06718V12.1093Z" fill="#A46E2E"/>
</svg>
