<svg width="38" height="38" viewBox="0 0 38 38" fill="none" xmlns="http://www.w3.org/2000/svg">
<rect x="0.5" y="0.5" width="37" height="37" fill="white"/>
<path d="M28.1667 15.81V11.6484C28.1667 10.3559 27.58 9.83337 26.1225 9.83337H22.4192C20.9617 9.83337 20.375 10.3559 20.375 11.6484V15.8009C20.375 17.1025 20.9617 17.6159 22.4192 17.6159H26.1225C27.58 17.625 28.1667 17.1025 28.1667 15.81Z" stroke="#2E368F" stroke-linecap="round" stroke-linejoin="round"/>
<path d="M28.1667 26.1225V22.4192C28.1667 20.9617 27.58 20.375 26.1225 20.375H22.4192C20.9617 20.375 20.375 20.9617 20.375 22.4192V26.1225C20.375 27.58 20.9617 28.1667 22.4192 28.1667H26.1225C27.58 28.1667 28.1667 27.58 28.1667 26.1225Z" stroke="#2E368F" stroke-linecap="round" stroke-linejoin="round"/>
<path d="M17.6247 15.81V11.6484C17.6247 10.3559 17.038 9.83337 15.5805 9.83337H11.8772C10.4197 9.83337 9.83301 10.3559 9.83301 11.6484V15.8009C9.83301 17.1025 10.4197 17.6159 11.8772 17.6159H15.5805C17.038 17.625 17.6247 17.1025 17.6247 15.81Z" stroke="#2E368F" stroke-linecap="round" stroke-linejoin="round"/>
<path d="M17.6247 26.1225V22.4192C17.6247 20.9617 17.038 20.375 15.5805 20.375H11.8772C10.4197 20.375 9.83301 20.9617 9.83301 22.4192V26.1225C9.83301 27.58 10.4197 28.1667 11.8772 28.1667H15.5805C17.038 28.1667 17.6247 27.58 17.6247 26.1225Z" stroke="#2E368F" stroke-linecap="round" stroke-linejoin="round"/>
<rect x="0.5" y="0.5" width="37" height="37" stroke="#2E368F"/>
</svg>
