<svg width="16" height="16" viewBox="0 0 16 16" fill="none" xmlns="http://www.w3.org/2000/svg">
<g clip-path="url(#clip0_121_953)">
<path d="M8 0C5.24266 0 3 2.24266 3 5C3 7.66 7.542 13.6173 7.73534 13.8693C7.79869 13.952 7.896 14 8 14C8.104 14 8.20134 13.952 8.26465 13.8693C8.458 13.6173 13 7.66 13 5C13 2.24266 10.7573 0 8 0ZM8 7.33334C6.71334 7.33334 5.66665 6.28669 5.66665 5C5.66665 3.71331 6.71331 2.66666 8 2.66666C9.28668 2.66666 10.3333 3.71331 10.3333 5C10.3333 6.28669 9.28665 7.33334 8 7.33334Z" fill="white"/>
<path d="M15.6113 15.482L12.9447 11.482C12.8827 11.3894 12.7787 11.3334 12.6673 11.3334H10.864C9.89797 12.8194 9.00397 14.002 8.79462 14.2747C8.60728 14.5194 8.30997 14.6667 8.00062 14.6667C7.69128 14.6667 7.39397 14.5194 7.20597 14.2741C6.99731 14.0014 6.10262 12.8187 5.13731 11.3334H3.33397C3.22262 11.3334 3.11862 11.3894 3.05662 11.4821L0.389967 15.4821C0.321967 15.5841 0.31531 15.7161 0.37331 15.8247C0.43131 15.9321 0.543967 16.0001 0.66731 16.0001H15.334C15.4573 16.0001 15.57 15.9321 15.6273 15.8241C15.686 15.7154 15.68 15.584 15.6113 15.482Z" fill="white"/>
</g>
<defs>
<clipPath id="clip0_121_953">
<rect width="16" height="16" fill="white"/>
</clipPath>
</defs>
</svg>
