<svg width="23" height="20" viewBox="0 0 23 20" fill="none" xmlns="http://www.w3.org/2000/svg">
<g clip-path="url(#clip0_58_689)">
<path d="M21.0745 10.6958V1.58833C21.0745 1.26341 20.7831 1 20.4235 1H2.98289C2.62338 1 2.33193 1.26341 2.33193 1.58833V11.4218C2.0179 11.4631 1.71091 11.5733 1.43933 11.7555C0.583183 12.3042 0.380691 13.5321 1.09783 14.2894L4.0299 17.5019C5.84486 19.4217 7.77288 19.6569 10.6391 19.6569C13.0987 19.6569 14.1984 19.6667 16.342 19.2253L18.4293 18.7741C18.7678 19.2012 19.3051 19.478 19.9092 19.478H20.9374C21.9591 19.478 22.7903 18.6866 22.7903 17.7138V12.4546C22.7903 11.5258 22.0323 10.7628 21.0745 10.6958ZM18.1486 11.906L17.2812 11.5078C15.8551 10.8573 14.2063 10.8332 12.7577 11.4419C12.3625 11.5824 11.5005 12.0537 11.0534 12.038H8.04368C7.04537 12.038 6.23314 12.772 6.23314 13.6743V14.1034C6.22754 14.098 6.22168 14.093 6.21617 14.0876L4.06691 11.9791C3.93685 11.8515 3.79073 11.7447 3.63389 11.6591V5.82211H8.96106V7.97877C8.96106 8.30368 9.25252 8.5671 9.61202 8.5671H13.7196C14.0791 8.5671 14.3706 8.30368 14.3706 7.97877V5.82211H19.7726V10.6957C19.012 10.7488 18.3778 11.2406 18.1486 11.906ZM10.2629 5.82211H13.0686V7.39044H10.2629V5.82211ZM19.7726 4.64545H14.3706V2.17666H19.7726V4.64545H19.7726ZM13.0687 2.17666V4.64549H10.263V2.17666H13.0687ZM8.96102 2.17666V4.64549H3.63385V2.17666H8.96102ZM16.0399 18.0807C14.0597 18.4906 12.8671 18.474 10.6625 18.474C7.97182 18.474 6.67176 18.4347 5.03429 16.7531L2.10222 13.5406C1.59222 12.9404 2.51598 12.2318 3.10939 12.7763L5.25865 14.8848C5.82668 15.4265 6.54148 15.7246 7.42249 15.7421H13.3813C13.7408 15.7421 14.0323 15.4787 14.0323 15.1538C14.0323 14.8289 13.7408 14.5655 13.3813 14.5655H7.53502V13.6742C7.53502 13.4208 7.76316 13.2146 8.04364 13.2146H11.0533C11.7314 13.2584 12.71 12.7468 13.3066 12.5088C14.3915 12.0529 15.6264 12.0709 16.6931 12.5575L18.0564 13.1833V17.6448L16.0399 18.0807ZM21.4884 17.7138C21.4884 18.0377 21.2412 18.3013 20.9375 18.3013H19.9092C19.6054 18.3013 19.3583 18.0377 19.3583 17.7138V12.4546C19.3583 12.1307 19.6055 11.8671 19.9092 11.8671H20.9375C21.2412 11.8671 21.4884 12.1306 21.4884 12.4546V17.7138Z" fill="#A46E2E"/>
</g>
<defs>
<clipPath id="clip0_58_689">
<rect width="22.1291" height="20" fill="white" transform="translate(0.661133)"/>
</clipPath>
</defs>
</svg>
